<?xml version="1.0" encoding="UTF-8"?>
<svg width="930px" height="320px" viewBox="0 0 930 320" version="1.1" xmlns="http://www.w3.org/2000/svg" xmlns:xlink="http://www.w3.org/1999/xlink">
    <!-- Generator: sketchtool 53 (72520) - https://sketchapp.com -->
    <title>D0FE02F0-388A-4D69-A08C-8F2645F7D8DB</title>
    <desc>Created with sketchtool.</desc>
    <g id="Page-1" stroke="none" stroke-width="1" fill="none" fill-rule="evenodd">
        <g id="Therapy-Light" transform="translate(-175.000000, -789.000000)" fill="#000000">
            <g id="delighter" transform="translate(175.000000, 789.000000)">
                <g id="delighter-2" opacity="0.049999997" transform="translate(815.000000, 123.000000) scale(-1, 1) translate(-815.000000, -123.000000) translate(700.000000, 8.000000)">
                    <circle id="Oval-Copy-110" cx="7" cy="7" r="7"></circle>
                    <circle id="Oval-Copy-111" cx="7" cy="103" r="7"></circle>
                    <circle id="Oval-Copy-112" cx="7" cy="55" r="7"></circle>
                    <circle id="Oval-Copy-113" cx="7" cy="151" r="7"></circle>
                    <circle id="Oval-Copy-114" cx="7" cy="199" r="7"></circle>
                    <circle id="Oval-Copy-115" cx="7" cy="31" r="7"></circle>
                    <circle id="Oval-Copy-116" cx="7" cy="127" r="7"></circle>
                    <circle id="Oval-Copy-117" cx="7" cy="79" r="7"></circle>
                    <circle id="Oval-Copy-118" cx="7" cy="175" r="7"></circle>
                    <circle id="Oval-Copy-119" cx="7" cy="223" r="7"></circle>
                    <circle id="Oval-Copy-120" cx="103" cy="7" r="7"></circle>
                    <circle id="Oval-Copy-121" cx="103" cy="103" r="7"></circle>
                    <circle id="Oval-Copy-122" cx="103" cy="55" r="7"></circle>
                    <circle id="Oval-Copy-125" cx="103" cy="31" r="7"></circle>
                    <circle id="Oval-Copy-126" cx="103" cy="127" r="7"></circle>
                    <circle id="Oval-Copy-127" cx="103" cy="79" r="7"></circle>
                    <circle id="Oval-Copy-130" cx="55" cy="7" r="7"></circle>
                    <circle id="Oval-Copy-131" cx="55" cy="103" r="7"></circle>
                    <circle id="Oval-Copy-132" cx="55" cy="55" r="7"></circle>
                    <circle id="Oval-Copy-133" cx="55" cy="151" r="7"></circle>
                    <circle id="Oval-Copy-135" cx="55" cy="31" r="7"></circle>
                    <circle id="Oval-Copy-136" cx="55" cy="127" r="7"></circle>
                    <circle id="Oval-Copy-137" cx="55" cy="79" r="7"></circle>
                    <circle id="Oval-Copy-138" cx="55" cy="175" r="7"></circle>
                    <circle id="Oval-Copy-140" cx="151" cy="7" r="7"></circle>
                    <circle id="Oval-Copy-142" cx="151" cy="55" r="7"></circle>
                    <circle id="Oval-Copy-145" cx="151" cy="31" r="7"></circle>
                    <circle id="Oval-Copy-147" cx="151" cy="79" r="7"></circle>
                    <circle id="Oval-Copy-150" cx="199" cy="7" r="7"></circle>
                    <circle id="Oval-Copy-155" cx="199" cy="31" r="7"></circle>
                    <circle id="Oval-Copy-160" cx="31" cy="7" r="7"></circle>
                    <circle id="Oval-Copy-161" cx="31" cy="103" r="7"></circle>
                    <circle id="Oval-Copy-162" cx="31" cy="55" r="7"></circle>
                    <circle id="Oval-Copy-163" cx="31" cy="151" r="7"></circle>
                    <circle id="Oval-Copy-164" cx="31" cy="199" r="7"></circle>
                    <circle id="Oval-Copy-165" cx="31" cy="31" r="7"></circle>
                    <circle id="Oval-Copy-166" cx="31" cy="127" r="7"></circle>
                    <circle id="Oval-Copy-167" cx="31" cy="79" r="7"></circle>
                    <circle id="Oval-Copy-168" cx="31" cy="175" r="7"></circle>
                    <circle id="Oval-Copy-170" cx="127" cy="7" r="7"></circle>
                    <circle id="Oval-Copy-171" cx="127" cy="103" r="7"></circle>
                    <circle id="Oval-Copy-172" cx="127" cy="55" r="7"></circle>
                    <circle id="Oval-Copy-175" cx="127" cy="31" r="7"></circle>
                    <circle id="Oval-Copy-177" cx="127" cy="79" r="7"></circle>
                    <circle id="Oval-Copy-180" cx="79" cy="7" r="7"></circle>
                    <circle id="Oval-Copy-181" cx="79" cy="103" r="7"></circle>
                    <circle id="Oval-Copy-182" cx="79" cy="55" r="7"></circle>
                    <circle id="Oval-Copy-183" cx="79" cy="151" r="7"></circle>
                    <circle id="Oval-Copy-185" cx="79" cy="31" r="7"></circle>
                    <circle id="Oval-Copy-186" cx="79" cy="127" r="7"></circle>
                    <circle id="Oval-Copy-187" cx="79" cy="79" r="7"></circle>
                    <circle id="Oval-Copy-190" cx="175" cy="7" r="7"></circle>
                    <circle id="Oval-Copy-192" cx="175" cy="55" r="7"></circle>
                    <circle id="Oval-Copy-195" cx="175" cy="31" r="7"></circle>
                    <circle id="Oval-Copy-200" cx="223" cy="7" r="7"></circle>
                </g>
                <g id="delighter-3" opacity="0.049999997" transform="translate(115.000000, 199.000000) scale(1, -1) translate(-115.000000, -199.000000) translate(0.000000, 84.000000)">
                    <circle id="Oval-Copy-110" cx="7" cy="7" r="7"></circle>
                    <circle id="Oval-Copy-111" cx="7" cy="103" r="7"></circle>
                    <circle id="Oval-Copy-112" cx="7" cy="55" r="7"></circle>
                    <circle id="Oval-Copy-113" cx="7" cy="151" r="7"></circle>
                    <circle id="Oval-Copy-114" cx="7" cy="199" r="7"></circle>
                    <circle id="Oval-Copy-115" cx="7" cy="31" r="7"></circle>
                    <circle id="Oval-Copy-116" cx="7" cy="127" r="7"></circle>
                    <circle id="Oval-Copy-117" cx="7" cy="79" r="7"></circle>
                    <circle id="Oval-Copy-118" cx="7" cy="175" r="7"></circle>
                    <circle id="Oval-Copy-119" cx="7" cy="223" r="7"></circle>
                    <circle id="Oval-Copy-120" cx="103" cy="7" r="7"></circle>
                    <circle id="Oval-Copy-121" cx="103" cy="103" r="7"></circle>
                    <circle id="Oval-Copy-122" cx="103" cy="55" r="7"></circle>
                    <circle id="Oval-Copy-125" cx="103" cy="31" r="7"></circle>
                    <circle id="Oval-Copy-126" cx="103" cy="127" r="7"></circle>
                    <circle id="Oval-Copy-127" cx="103" cy="79" r="7"></circle>
                    <circle id="Oval-Copy-130" cx="55" cy="7" r="7"></circle>
                    <circle id="Oval-Copy-131" cx="55" cy="103" r="7"></circle>
                    <circle id="Oval-Copy-132" cx="55" cy="55" r="7"></circle>
                    <circle id="Oval-Copy-133" cx="55" cy="151" r="7"></circle>
                    <circle id="Oval-Copy-135" cx="55" cy="31" r="7"></circle>
                    <circle id="Oval-Copy-136" cx="55" cy="127" r="7"></circle>
                    <circle id="Oval-Copy-137" cx="55" cy="79" r="7"></circle>
                    <circle id="Oval-Copy-138" cx="55" cy="175" r="7"></circle>
                    <circle id="Oval-Copy-140" cx="151" cy="7" r="7"></circle>
                    <circle id="Oval-Copy-142" cx="151" cy="55" r="7"></circle>
                    <circle id="Oval-Copy-145" cx="151" cy="31" r="7"></circle>
                    <circle id="Oval-Copy-147" cx="151" cy="79" r="7"></circle>
                    <circle id="Oval-Copy-150" cx="199" cy="7" r="7"></circle>
                    <circle id="Oval-Copy-155" cx="199" cy="31" r="7"></circle>
                    <circle id="Oval-Copy-160" cx="31" cy="7" r="7"></circle>
                    <circle id="Oval-Copy-161" cx="31" cy="103" r="7"></circle>
                    <circle id="Oval-Copy-162" cx="31" cy="55" r="7"></circle>
                    <circle id="Oval-Copy-163" cx="31" cy="151" r="7"></circle>
                    <circle id="Oval-Copy-164" cx="31" cy="199" r="7"></circle>
                    <circle id="Oval-Copy-165" cx="31" cy="31" r="7"></circle>
                    <circle id="Oval-Copy-166" cx="31" cy="127" r="7"></circle>
                    <circle id="Oval-Copy-167" cx="31" cy="79" r="7"></circle>
                    <circle id="Oval-Copy-168" cx="31" cy="175" r="7"></circle>
                    <circle id="Oval-Copy-170" cx="127" cy="7" r="7"></circle>
                    <circle id="Oval-Copy-171" cx="127" cy="103" r="7"></circle>
                    <circle id="Oval-Copy-172" cx="127" cy="55" r="7"></circle>
                    <circle id="Oval-Copy-175" cx="127" cy="31" r="7"></circle>
                    <circle id="Oval-Copy-177" cx="127" cy="79" r="7"></circle>
                    <circle id="Oval-Copy-180" cx="79" cy="7" r="7"></circle>
                    <circle id="Oval-Copy-181" cx="79" cy="103" r="7"></circle>
                    <circle id="Oval-Copy-182" cx="79" cy="55" r="7"></circle>
                    <circle id="Oval-Copy-183" cx="79" cy="151" r="7"></circle>
                    <circle id="Oval-Copy-185" cx="79" cy="31" r="7"></circle>
                    <circle id="Oval-Copy-186" cx="79" cy="127" r="7"></circle>
                    <circle id="Oval-Copy-187" cx="79" cy="79" r="7"></circle>
                    <circle id="Oval-Copy-190" cx="175" cy="7" r="7"></circle>
                    <circle id="Oval-Copy-192" cx="175" cy="55" r="7"></circle>
                    <circle id="Oval-Copy-195" cx="175" cy="31" r="7"></circle>
                    <circle id="Oval-Copy-200" cx="223" cy="7" r="7"></circle>
                </g>
                <g id="delghter-1" opacity="0.099999994" transform="translate(170.000000, 0.000000)">
                    <circle id="Oval-Copy-110" cx="2.5" cy="2.5" r="2.5"></circle>
                    <circle id="Oval-Copy-111" cx="2.5" cy="39.5" r="2.5"></circle>
                    <circle id="Oval-Copy-112" cx="2.5" cy="21.5" r="2.5"></circle>
                    <circle id="Oval-Copy-113" cx="2.5" cy="57.5" r="2.5"></circle>
                    <circle id="Oval-Copy-114" cx="2.5" cy="76.5" r="2.5"></circle>
                    <circle id="Oval-Copy-115" cx="2.5" cy="11.5" r="2.5"></circle>
                    <circle id="Oval-Copy-116" cx="2.5" cy="48.5" r="2.5"></circle>
                    <circle id="Oval-Copy-117" cx="2.5" cy="30.5" r="2.5"></circle>
                    <circle id="Oval-Copy-118" cx="2.5" cy="66.5" r="2.5"></circle>
                    <circle id="Oval-Copy-119" cx="2.5" cy="85.5" r="2.5"></circle>
                    <circle id="Oval-Copy-120" cx="39.5" cy="2.5" r="2.5"></circle>
                    <circle id="Oval-Copy-121" cx="39.5" cy="39.5" r="2.5"></circle>
                    <circle id="Oval-Copy-122" cx="39.5" cy="21.5" r="2.5"></circle>
                    <circle id="Oval-Copy-125" cx="39.5" cy="11.5" r="2.5"></circle>
                    <circle id="Oval-Copy-126" cx="39.5" cy="48.5" r="2.5"></circle>
                    <circle id="Oval-Copy-127" cx="39.5" cy="30.5" r="2.5"></circle>
                    <circle id="Oval-Copy-130" cx="21.5" cy="2.5" r="2.5"></circle>
                    <circle id="Oval-Copy-131" cx="21.5" cy="39.5" r="2.5"></circle>
                    <circle id="Oval-Copy-132" cx="21.5" cy="21.5" r="2.5"></circle>
                    <circle id="Oval-Copy-133" cx="21.5" cy="57.5" r="2.5"></circle>
                    <circle id="Oval-Copy-135" cx="21.5" cy="11.5" r="2.5"></circle>
                    <circle id="Oval-Copy-136" cx="21.5" cy="48.5" r="2.5"></circle>
                    <circle id="Oval-Copy-137" cx="21.5" cy="30.5" r="2.5"></circle>
                    <circle id="Oval-Copy-138" cx="21.5" cy="66.5" r="2.5"></circle>
                    <circle id="Oval-Copy-140" cx="57.5" cy="2.5" r="2.5"></circle>
                    <circle id="Oval-Copy-142" cx="57.5" cy="21.5" r="2.5"></circle>
                    <circle id="Oval-Copy-145" cx="57.5" cy="11.5" r="2.5"></circle>
                    <circle id="Oval-Copy-147" cx="57.5" cy="30.5" r="2.5"></circle>
                    <circle id="Oval-Copy-150" cx="76.5" cy="2.5" r="2.5"></circle>
                    <circle id="Oval-Copy-155" cx="76.5" cy="11.5" r="2.5"></circle>
                    <circle id="Oval-Copy-160" cx="11.5" cy="2.5" r="2.5"></circle>
                    <circle id="Oval-Copy-161" cx="11.5" cy="39.5" r="2.5"></circle>
                    <circle id="Oval-Copy-162" cx="11.5" cy="21.5" r="2.5"></circle>
                    <circle id="Oval-Copy-163" cx="11.5" cy="57.5" r="2.5"></circle>
                    <circle id="Oval-Copy-164" cx="11.5" cy="76.5" r="2.5"></circle>
                    <circle id="Oval-Copy-165" cx="11.5" cy="11.5" r="2.5"></circle>
                    <circle id="Oval-Copy-166" cx="11.5" cy="48.5" r="2.5"></circle>
                    <circle id="Oval-Copy-167" cx="11.5" cy="30.5" r="2.5"></circle>
                    <circle id="Oval-Copy-168" cx="11.5" cy="66.5" r="2.5"></circle>
                    <circle id="Oval-Copy-170" cx="48.5" cy="2.5" r="2.5"></circle>
                    <circle id="Oval-Copy-171" cx="48.5" cy="39.5" r="2.5"></circle>
                    <circle id="Oval-Copy-172" cx="48.5" cy="21.5" r="2.5"></circle>
                    <circle id="Oval-Copy-175" cx="48.5" cy="11.5" r="2.5"></circle>
                    <circle id="Oval-Copy-177" cx="48.5" cy="30.5" r="2.5"></circle>
                    <circle id="Oval-Copy-180" cx="30.5" cy="2.5" r="2.5"></circle>
                    <circle id="Oval-Copy-181" cx="30.5" cy="39.5" r="2.5"></circle>
                    <circle id="Oval-Copy-182" cx="30.5" cy="21.5" r="2.5"></circle>
                    <circle id="Oval-Copy-183" cx="30.5" cy="57.5" r="2.5"></circle>
                    <circle id="Oval-Copy-185" cx="30.5" cy="11.5" r="2.5"></circle>
                    <circle id="Oval-Copy-186" cx="30.5" cy="48.5" r="2.5"></circle>
                    <circle id="Oval-Copy-187" cx="30.5" cy="30.5" r="2.5"></circle>
                    <circle id="Oval-Copy-190" cx="66.5" cy="2.5" r="2.5"></circle>
                    <circle id="Oval-Copy-192" cx="66.5" cy="21.5" r="2.5"></circle>
                    <circle id="Oval-Copy-195" cx="66.5" cy="11.5" r="2.5"></circle>
                    <circle id="Oval-Copy-200" cx="85.5" cy="2.5" r="2.5"></circle>
                </g>
                <g id="delighter-4" opacity="0.149999991" transform="translate(754.000000, 259.000000)">
                    <circle id="Oval-Copy-110" cx="1.5" cy="1.5" r="1.5"></circle>
                    <circle id="Oval-Copy-111" cx="1.5" cy="27.5" r="1.5"></circle>
                    <circle id="Oval-Copy-112" cx="1.5" cy="14.5" r="1.5"></circle>
                    <circle id="Oval-Copy-113" cx="1.5" cy="39.5" r="1.5"></circle>
                    <circle id="Oval-Copy-114" cx="1.5" cy="53.5" r="1.5"></circle>
                    <circle id="Oval-Copy-115" cx="1.5" cy="7.5" r="1.5"></circle>
                    <circle id="Oval-Copy-116" cx="1.5" cy="33.5" r="1.5"></circle>
                    <circle id="Oval-Copy-117" cx="1.5" cy="21.5" r="1.5"></circle>
                    <circle id="Oval-Copy-118" cx="1.5" cy="46.5" r="1.5"></circle>
                    <circle id="Oval-Copy-119" cx="1.5" cy="59.5" r="1.5"></circle>
                    <circle id="Oval-Copy-120" cx="27.5" cy="1.5" r="1.5"></circle>
                    <circle id="Oval-Copy-121" cx="27.5" cy="27.5" r="1.5"></circle>
                    <circle id="Oval-Copy-122" cx="27.5" cy="14.5" r="1.5"></circle>
                    <circle id="Oval-Copy-125" cx="27.5" cy="7.5" r="1.5"></circle>
                    <circle id="Oval-Copy-126" cx="27.5" cy="33.5" r="1.5"></circle>
                    <circle id="Oval-Copy-127" cx="27.5" cy="21.5" r="1.5"></circle>
                    <circle id="Oval-Copy-130" cx="14.5" cy="1.5" r="1.5"></circle>
                    <circle id="Oval-Copy-131" cx="14.5" cy="27.5" r="1.5"></circle>
                    <circle id="Oval-Copy-132" cx="14.5" cy="14.5" r="1.5"></circle>
                    <circle id="Oval-Copy-133" cx="14.5" cy="39.5" r="1.5"></circle>
                    <circle id="Oval-Copy-135" cx="14.5" cy="7.5" r="1.5"></circle>
                    <circle id="Oval-Copy-136" cx="14.5" cy="33.5" r="1.5"></circle>
                    <circle id="Oval-Copy-137" cx="14.5" cy="21.5" r="1.5"></circle>
                    <circle id="Oval-Copy-138" cx="14.5" cy="46.5" r="1.5"></circle>
                    <circle id="Oval-Copy-140" cx="39.5" cy="1.5" r="1.5"></circle>
                    <circle id="Oval-Copy-142" cx="39.5" cy="14.5" r="1.5"></circle>
                    <circle id="Oval-Copy-145" cx="39.5" cy="7.5" r="1.5"></circle>
                    <circle id="Oval-Copy-147" cx="39.5" cy="21.5" r="1.5"></circle>
                    <circle id="Oval-Copy-150" cx="53.5" cy="1.5" r="1.5"></circle>
                    <circle id="Oval-Copy-155" cx="53.5" cy="7.5" r="1.5"></circle>
                    <circle id="Oval-Copy-160" cx="7.5" cy="1.5" r="1.5"></circle>
                    <circle id="Oval-Copy-161" cx="7.5" cy="27.5" r="1.5"></circle>
                    <circle id="Oval-Copy-162" cx="7.5" cy="14.5" r="1.5"></circle>
                    <circle id="Oval-Copy-163" cx="7.5" cy="39.5" r="1.5"></circle>
                    <circle id="Oval-Copy-164" cx="7.5" cy="53.5" r="1.5"></circle>
                    <circle id="Oval-Copy-165" cx="7.5" cy="7.5" r="1.5"></circle>
                    <circle id="Oval-Copy-166" cx="7.5" cy="33.5" r="1.5"></circle>
                    <circle id="Oval-Copy-167" cx="7.5" cy="21.5" r="1.5"></circle>
                    <circle id="Oval-Copy-168" cx="7.5" cy="46.5" r="1.5"></circle>
                    <circle id="Oval-Copy-170" cx="33.5" cy="1.5" r="1.5"></circle>
                    <circle id="Oval-Copy-171" cx="33.5" cy="27.5" r="1.5"></circle>
                    <circle id="Oval-Copy-172" cx="33.5" cy="14.5" r="1.5"></circle>
                    <circle id="Oval-Copy-175" cx="33.5" cy="7.5" r="1.5"></circle>
                    <circle id="Oval-Copy-177" cx="33.5" cy="21.5" r="1.5"></circle>
                    <circle id="Oval-Copy-180" cx="21.5" cy="1.5" r="1.5"></circle>
                    <circle id="Oval-Copy-181" cx="21.5" cy="27.5" r="1.5"></circle>
                    <circle id="Oval-Copy-182" cx="21.5" cy="14.5" r="1.5"></circle>
                    <circle id="Oval-Copy-183" cx="21.5" cy="39.5" r="1.5"></circle>
                    <circle id="Oval-Copy-185" cx="21.5" cy="7.5" r="1.5"></circle>
                    <circle id="Oval-Copy-186" cx="21.5" cy="33.5" r="1.5"></circle>
                    <circle id="Oval-Copy-187" cx="21.5" cy="21.5" r="1.5"></circle>
                    <circle id="Oval-Copy-190" cx="46.5" cy="1.5" r="1.5"></circle>
                    <circle id="Oval-Copy-192" cx="46.5" cy="14.5" r="1.5"></circle>
                    <circle id="Oval-Copy-195" cx="46.5" cy="7.5" r="1.5"></circle>
                    <circle id="Oval-Copy-200" cx="59.5" cy="1.5" r="1.5"></circle>
                </g>
            </g>
        </g>
    </g>
</svg>